<mxfile host="Electron" agent="Mozilla/5.0 (Macintosh; Intel Mac OS X 10_15_7) AppleWebKit/537.36 (KHTML, like Gecko) draw.io/24.7.5 Chrome/126.0.6478.183 Electron/31.3.0 Safari/537.36" version="24.7.5">
  <diagram name="페이지-1" id="yD2UCoTfa--K8t7EghXq">
    <mxGraphModel dx="781" dy="894" grid="1" gridSize="10" guides="1" tooltips="1" connect="1" arrows="1" fold="1" page="1" pageScale="1" pageWidth="827" pageHeight="1169" math="0" shadow="0">
      <root>
        <mxCell id="0" />
        <mxCell id="1" parent="0" />
        <mxCell id="mwvT7hFkOCPaEJnFJCzc-1" value="application.port.in" style="shape=folder;fontStyle=1;spacingTop=10;tabWidth=40;tabHeight=14;tabPosition=left;html=1;whiteSpace=wrap;verticalAlign=top;horizontal=1;fontSize=14;fillColor=#dae8fc;strokeColor=#6c8ebf;" vertex="1" parent="1">
          <mxGeometry x="90" y="60" width="170" height="150" as="geometry" />
        </mxCell>
        <mxCell id="mwvT7hFkOCPaEJnFJCzc-2" value="&amp;lt;&amp;lt;interface&amp;gt;&amp;gt;&lt;div&gt;SendMoney&lt;/div&gt;&lt;div&gt;UseCase&lt;/div&gt;" style="rounded=0;whiteSpace=wrap;html=1;" vertex="1" parent="1">
          <mxGeometry x="115" y="140" width="120" height="50" as="geometry" />
        </mxCell>
        <mxCell id="mwvT7hFkOCPaEJnFJCzc-3" value="adapter.out.persistence" style="shape=folder;fontStyle=1;spacingTop=10;tabWidth=40;tabHeight=14;tabPosition=left;html=1;whiteSpace=wrap;verticalAlign=top;horizontal=1;fontSize=14;fillColor=#d5e8d4;strokeColor=#82b366;" vertex="1" parent="1">
          <mxGeometry x="380" y="60" width="180" height="150" as="geometry" />
        </mxCell>
        <mxCell id="mwvT7hFkOCPaEJnFJCzc-10" style="edgeStyle=orthogonalEdgeStyle;rounded=0;orthogonalLoop=1;jettySize=auto;html=1;entryX=1;entryY=0.5;entryDx=0;entryDy=0;endArrow=block;endFill=0;" edge="1" parent="1" source="mwvT7hFkOCPaEJnFJCzc-4" target="mwvT7hFkOCPaEJnFJCzc-2">
          <mxGeometry relative="1" as="geometry" />
        </mxCell>
        <mxCell id="mwvT7hFkOCPaEJnFJCzc-4" value="AccountPersistence&lt;div&gt;Adapter&lt;/div&gt;" style="rounded=0;whiteSpace=wrap;html=1;" vertex="1" parent="1">
          <mxGeometry x="414" y="140" width="116" height="50" as="geometry" />
        </mxCell>
        <mxCell id="mwvT7hFkOCPaEJnFJCzc-8" value="domain" style="shape=folder;fontStyle=1;spacingTop=10;tabWidth=40;tabHeight=14;tabPosition=left;html=1;whiteSpace=wrap;verticalAlign=top;horizontal=1;fontSize=14;fillColor=#f8cecc;strokeColor=#b85450;" vertex="1" parent="1">
          <mxGeometry x="234" y="260" width="180" height="150" as="geometry" />
        </mxCell>
        <mxCell id="mwvT7hFkOCPaEJnFJCzc-9" value="Account" style="rounded=0;whiteSpace=wrap;html=1;" vertex="1" parent="1">
          <mxGeometry x="268" y="340" width="116" height="50" as="geometry" />
        </mxCell>
        <mxCell id="mwvT7hFkOCPaEJnFJCzc-11" style="edgeStyle=orthogonalEdgeStyle;rounded=0;orthogonalLoop=1;jettySize=auto;html=1;entryX=1;entryY=0.5;entryDx=0;entryDy=0;endArrow=block;endFill=1;" edge="1" parent="1" source="mwvT7hFkOCPaEJnFJCzc-4" target="mwvT7hFkOCPaEJnFJCzc-9">
          <mxGeometry relative="1" as="geometry">
            <Array as="points">
              <mxPoint x="472" y="365" />
            </Array>
          </mxGeometry>
        </mxCell>
        <mxCell id="mwvT7hFkOCPaEJnFJCzc-12" style="edgeStyle=orthogonalEdgeStyle;rounded=0;orthogonalLoop=1;jettySize=auto;html=1;entryX=0;entryY=0.5;entryDx=0;entryDy=0;endArrow=block;endFill=1;" edge="1" parent="1" source="mwvT7hFkOCPaEJnFJCzc-2" target="mwvT7hFkOCPaEJnFJCzc-9">
          <mxGeometry relative="1" as="geometry">
            <Array as="points">
              <mxPoint x="175" y="365" />
            </Array>
          </mxGeometry>
        </mxCell>
      </root>
    </mxGraphModel>
  </diagram>
</mxfile>
